<?xml version="1.0" encoding="utf-8"?>
<!-- Generator: Adobe Illustrator 16.0.0, SVG Export Plug-In . SVG Version: 6.00 Build 0)  -->
<!DOCTYPE svg PUBLIC "-//W3C//DTD SVG 1.1//EN" "http://www.w3.org/Graphics/SVG/1.1/DTD/svg11.dtd">
<svg version="1.1" id="Layer_1" xmlns="http://www.w3.org/2000/svg" xmlns:xlink="http://www.w3.org/1999/xlink" x="0px" y="0px"
	 width="500px" height="560px" viewBox="0 0 500 560" enable-background="new 0 0 500 560" xml:space="preserve">
<g>
	<path fill-rule="evenodd" clip-rule="evenodd" fill="#010101" d="M400,280c0,82.846-67.158,150-150,150s-150-67.154-150-150
		s67.158-150,150-150S400,197.154,400,280z"/>
	<path fill-rule="evenodd" clip-rule="evenodd" fill="#FFFFFF" d="M325.083,218.047c0.004-1.73-0.266-2.262-2.179-1.96
		c-6.189,0.962-12.318,2.134-18.425,3.516c-18.411,4.157-36.044,10.446-52.895,18.942c-1.017,0.513-1.827,0.576-2.856,0.055
		c-22.426-11.334-46.115-18.668-70.939-22.439c-2.674-0.402-2.729-0.421-2.729,2.335c0,41.106-0.06,82.224-0.06,123.331
		c0,0.604,0,1.208,0,1.932c0-0.367,1.053-1.025,1.364-1.539c14.429-24.068,32.932-44.476,55.417-61.248
		c13.302-9.916,27.648-19.457,42.892-26.012c1.076-0.989,2.385-2.959,3.786-2.959h0.014c5.443,0,10.886-2.718,16.338-4.731
		c1.986-0.714,2.005,0.005,2.005,2.193c0,18.118,0.019,36.597-0.014,54.705c0,1.3,0.312,2.419,1.222,3.398
		c7.736,8.276,14.653,17.29,20.86,26.766c2.005,3.058,3.868,6.215,6.061,9.675c0.06-0.805,0.055-1.137,0.055-1.494
		c0-5.373,0-10.748,0-16.122C325,290.272,325.041,254.164,325.083,218.047z M222.049,256.086
		c-6.157,4.331-12.326,8.945-18.089,13.788c-0.128,0.101-0.96,0.128-0.96,0.284c0-1.648,0-3.158,0-4.66
		c0-5.246,0.269-10.492,0.214-15.729c-0.01-1.355,0.301-1.868,1.784-1.291c5.466,2.115,11.034,4.129,16.514,6.217
		C222.116,254.924,223.413,255.125,222.049,256.086z"/>
</g>
</svg>
