<?xml version="1.0" encoding="utf-8"?>
<!-- Generator: Adobe Illustrator 16.0.0, SVG Export Plug-In . SVG Version: 6.00 Build 0)  -->
<!DOCTYPE svg PUBLIC "-//W3C//DTD SVG 1.1//EN" "http://www.w3.org/Graphics/SVG/1.1/DTD/svg11.dtd">
<svg version="1.1" id="Layer_1" xmlns="http://www.w3.org/2000/svg" xmlns:xlink="http://www.w3.org/1999/xlink" x="0px" y="0px"
	 width="500px" height="560px" viewBox="0 0 500 560" enable-background="new 0 0 500 560" xml:space="preserve">
<g>
	<circle fill-rule="evenodd" clip-rule="evenodd" fill="#010101" cx="250" cy="280" r="16"/>
	<path fill-rule="evenodd" clip-rule="evenodd" fill="#FFFFFF" d="M258.009,273.392c0-0.185-0.028-0.241-0.232-0.209
		c-0.66,0.103-1.314,0.228-1.965,0.375c-1.964,0.443-3.845,1.114-5.642,2.021c-0.108,0.055-0.195,0.062-0.305,0.006
		c-2.392-1.209-4.919-1.991-7.567-2.394c-0.285-0.043-0.291-0.045-0.291,0.249c0,4.385-0.006,8.771-0.006,13.155
		c0,0.064,0,0.129,0,0.206c0-0.039,0.112-0.109,0.146-0.164c1.539-2.567,3.513-4.744,5.911-6.533
		c1.419-1.058,2.949-2.082,4.575-2.781c0.115-0.105,0.254-0.322,0.404-0.322h0.001c0.581,0,1.161-0.283,1.743-0.498
		c0.212-0.076,0.214,0.004,0.214,0.237c0,1.933,0.002,3.905-0.001,5.837c0,0.139,0.033,0.259,0.13,0.363
		c0.825,0.883,1.563,1.845,2.225,2.855c0.214,0.326,0.413,0.663,0.646,1.032c0.006-0.086,0.006-0.121,0.006-0.159
		c0-0.573,0-1.146,0-1.72C258,281.096,258.004,277.244,258.009,273.392z M247.019,277.449c-0.657,0.462-1.308,0.954-1.923,1.471
		c-0.014,0.011-0.096,0.014-0.096,0.03c0-0.176,0-0.337,0-0.497c0-0.56,0.022-1.119,0.016-1.678
		c-0.001-0.145,0.029-0.199,0.187-0.138c0.583,0.226,1.175,0.44,1.76,0.663C247.027,277.325,247.164,277.347,247.019,277.449z"/>
</g>
</svg>
