<?xml version="1.0" encoding="utf-8"?>
<!-- Generator: Adobe Illustrator 16.0.0, SVG Export Plug-In . SVG Version: 6.00 Build 0)  -->
<!DOCTYPE svg PUBLIC "-//W3C//DTD SVG 1.1//EN" "http://www.w3.org/Graphics/SVG/1.1/DTD/svg11.dtd">
<svg version="1.1" id="Layer_1" xmlns="http://www.w3.org/2000/svg" xmlns:xlink="http://www.w3.org/1999/xlink" x="0px" y="0px"
	 width="500px" height="560px" viewBox="0 0 500 560" enable-background="new 0 0 500 560" xml:space="preserve">
<circle fill-rule="evenodd" clip-rule="evenodd" fill="#010101" cx="250" cy="280" r="50"/>
<path fill-rule="evenodd" clip-rule="evenodd" fill="#FFFFFF" d="M275.045,259.35c0.001-0.579-0.096-0.755-0.734-0.654
	c-2.063,0.322-4.111,0.71-6.147,1.171c-6.136,1.388-12.018,3.482-17.634,6.315c-0.339,0.171-0.61,0.193-0.953,0.02
	c-7.475-3.778-15.374-6.224-23.647-7.48c-0.891-0.135-0.909-0.142-0.909,0.778C225.02,273.202,225,286.905,225,300.608
	c0,0.202,0,0.404,0,0.646c0-0.123,0.352-0.344,0.454-0.516c4.81-8.021,10.978-14.825,18.473-20.414
	c4.435-3.307,9.215-6.32,14.298-8.504c0.358-0.328,0.794-0.82,1.261-0.82h0.005c1.814,0,3.629-1.07,5.447-1.742
	c0.662-0.242,0.667-0.081,0.667,0.646c0,6.041,0.006,12.154-0.004,18.193c-0.001,0.432,0.103,0.787,0.407,1.112
	c2.579,2.76,4.885,5.753,6.954,8.912c0.668,1.02,1.308,2.066,2.038,3.218c0.02-0.268,0.037-0.383,0.037-0.502
	c0-1.793-0.002-3.583-0.002-5.376C275.034,283.424,275.031,271.388,275.045,259.35z M240.683,272.027
	c-2.052,1.444-3.774,2.983-5.696,4.597c-0.042,0.035,0.014,0.043,0.014,0.096c0-0.551,0-1.053,0-1.555
	c0-1.747-0.243-3.495-0.262-5.242c-0.004-0.45-0.067-0.621,0.428-0.43c1.823,0.705,3.594,1.377,5.421,2.071
	C240.789,271.641,241.138,271.707,240.683,272.027z"/>
</svg>
