<?xml version="1.0" encoding="utf-8"?>
<!-- Generator: Adobe Illustrator 16.0.0, SVG Export Plug-In . SVG Version: 6.00 Build 0)  -->
<!DOCTYPE svg PUBLIC "-//W3C//DTD SVG 1.1//EN" "http://www.w3.org/Graphics/SVG/1.1/DTD/svg11.dtd">
<svg version="1.1" id="Layer_1" xmlns="http://www.w3.org/2000/svg" xmlns:xlink="http://www.w3.org/1999/xlink" x="0px" y="0px"
	 width="500px" height="560px" viewBox="0 0 500 560" enable-background="new 0 0 500 560" xml:space="preserve">
<g>
	<g>
		<path fill-rule="evenodd" clip-rule="evenodd" fill="#010101" d="M172,238.977c0.002-1.151-0.191-1.499-1.458-1.301
			c-4.098,0.641-8.164,1.411-12.209,2.326c-12.188,2.757-23.868,6.916-35.023,12.543c-0.674,0.34-1.211,0.384-1.892,0.041
			c-14.847-7.506-30.534-12.362-46.966-14.857c-1.77-0.269-2.108-0.283-2.108,1.545C72.342,266.489,72,293.705,72,320.921
			c0,0.401,0,0.803,0,1.283c1-0.246,1.001-0.682,1.206-1.024c9.55-15.932,21.953-29.444,36.839-40.545
			c8.808-6.567,18.378-11.608,28.474-15.944c0.711-0.654,1.675-0.69,2.601-0.69h-0.001c3.604-1,7.203-3.068,10.813-4.4
			c1.314-0.484,1.322-0.635,1.322,0.81c0.001,11.997,0.011,23.904-0.009,35.901c-0.002,0.854,0.204,1.441,0.807,2.087
			c5.122,5.48,9.702,11.369,13.812,17.643c1.327,2.024,2.597,4.075,4.047,6.362c0.039-0.531,0.072-0.774,0.072-1.012
			c0.001-3.561-0.003-7.123-0.003-10.684C171.979,286.799,171.972,262.886,172,238.977z M103.752,264.155
			c-4.076,2.87-8.229,5.926-12.047,9.13c-0.082,0.069-0.705,0.085-0.705,0.19c0-1.095,0-2.091,0-3.088
			c0-3.47,0.251-6.942,0.215-10.412c-0.01-0.894,0.231-1.232,1.214-0.853c3.621,1.399,7.322,2.734,10.952,4.113
			C103.781,263.388,104.657,263.519,103.752,264.155z"/>
	</g>
	<path fill-rule="evenodd" clip-rule="evenodd" fill="none" stroke="#000000" stroke-width="3" stroke-miterlimit="10" d="
		M186.536,291.55c0-8.537-0.012-17.074,0.008-25.61c0.005-2.408,0.048-2.468,2.335-2.473c11.314-0.024,22.628-0.025,33.941-0.008
		c2.26,0.004,2.292,0.059,2.334,2.162c0.042,2.159-0.073,4.324,0.038,6.479c0.087,1.697-0.677,2.064-2.204,2.052
		c-6.788-0.058-13.576-0.023-20.364-0.022c-0.72,0-1.441,0.03-2.16-0.004c-1.195-0.057-1.632,0.521-1.62,1.672
		c0.033,2.88,0.083,5.763-0.02,8.639c-0.06,1.649,0.593,2.105,2.157,2.085c5.347-0.071,10.696-0.05,16.044-0.02
		c4.246,0.024,3.718-0.547,3.765,3.788c0.016,1.44,0.024,2.881,0,4.32c-0.04,2.376-0.052,2.417-2.361,2.427
		c-5.554,0.026-11.108,0.003-16.662,0.015c-2.885,0.006-2.896,0.021-2.916,2.819c-0.017,2.263-0.026,4.525,0.004,6.788
		c0.03,2.298,0.053,2.338,2.447,2.345c6.686,0.021,13.371,0.005,20.057,0.004c0.72,0,1.441,0.028,2.16-0.003
		c1.152-0.05,1.683,0.427,1.663,1.626c-0.043,2.468-0.055,4.938,0.007,7.405c0.035,1.388-0.619,1.817-1.878,1.726
		c-0.614-0.045-1.233-0.009-1.851-0.009c-10.697,0-21.394,0.005-32.09-0.005c-2.817-0.003-2.834-0.024-2.837-2.896
		c-0.009-8.435-0.003-16.868-0.003-25.302C186.532,291.55,186.534,291.55,186.536,291.55z"/>
	<path fill-rule="evenodd" clip-rule="evenodd" fill="#212121" d="M334.463,319.826c-4.402,0-8.001-0.111-11.589,0.047
		c-1.835,0.082-2.745-0.654-3.576-2.173c-4.587-8.382-9.265-16.715-13.916-25.062c-0.445-0.799-0.925-1.578-1.467-2.502
		c-1.222,0.547-1.502,1.706-2.013,2.619c-4.567,8.157-9.18,16.292-13.587,24.536c-1.092,2.042-2.349,2.694-4.57,2.583
		c-3.677-0.185-7.371-0.05-11.647-0.05c10.443-18.803,20.672-37.222,31.158-56.103C313.758,282.606,323.963,300.95,334.463,319.826z
		"/>
	<path fill-rule="evenodd" clip-rule="evenodd" fill="#212121" d="M414.081,291.797c0-8.635-0.01-17.271,0.007-25.905
		c0.005-2.376,0.043-2.425,2.331-2.429c11.308-0.02,22.615-0.022,33.923-0.003c2.208,0.004,2.233,0.06,2.27,2.188
		c0.036,2.055,0.038,4.112,0.006,6.167c-0.034,2.268-0.058,2.303-2.479,2.311c-6.682,0.019-13.364,0.004-20.045,0.004
		c-0.72,0-1.44,0.032-2.159,0.002c-1.005-0.042-1.542,0.348-1.537,1.415c0.016,3.187,0.021,6.373,0.001,9.56
		c-0.008,1.355,0.868,1.394,1.865,1.392c5.551-0.012,11.102-0.022,16.653,0.002c3.831,0.017,3.359-0.471,3.402,3.491
		c0.016,1.438,0.013,2.878,0.001,4.317c-0.021,2.703-0.026,2.725-2.639,2.732c-5.037,0.016-10.074,0.005-15.111,0.005
		c-0.617,0-1.234-0.013-1.85,0.003c-2.241,0.057-2.247,0.061-2.323,2.171c-0.022,0.615-0.005,1.233-0.005,1.85
		c0.001,5.14-0.007,10.28,0.005,15.42c0.008,3.704,0.027,3.244-3.409,3.26c-2.056,0.01-4.112,0.015-6.167,0.003
		c-2.713-0.015-2.737-0.022-2.742-2.667c-0.011-7.401,0-14.803,0.002-22.204C414.08,293.853,414.08,292.824,414.081,291.797z"/>
	<path fill-rule="evenodd" clip-rule="evenodd" fill="none" stroke="#000000" stroke-width="3" stroke-miterlimit="10" d="
		M254.006,263.453c6.786-0.002,13.572-0.02,20.357,0.008c2.201,0.009,2.226,0.063,2.261,2.206c0.033,2.056,0.033,4.113,0.001,6.169
		c-0.035,2.214-0.059,2.26-2.205,2.28c-3.804,0.037-7.608,0.002-11.412,0.017c-2.958,0.012-2.971,0.024-2.972,3.095
		c-0.006,12.954-0.004,25.908-0.005,38.862c0,0.721-0.018,1.44,0,2.159c0.026,1.011-0.415,1.508-1.458,1.502
		c-3.187-0.019-6.375-0.01-9.562-0.01c-0.892,0-1.297-0.462-1.295-1.332c0.002-0.72-0.009-1.439-0.009-2.159
		c0-12.748,0.001-25.497,0.001-38.246c0-0.72-0.049-1.443,0.007-2.158c0.109-1.382-0.563-1.755-1.843-1.734
		c-3.495,0.057-6.991,0.051-10.486,0.009c-4.717-0.057-4.156,0.757-4.197-4.295c-0.012-1.439,0.087-2.884-0.009-4.316
		c-0.109-1.643,0.579-2.1,2.161-2.084C240.229,263.495,247.118,263.455,254.006,263.453z"/>
	<path fill-rule="evenodd" clip-rule="evenodd" fill="#222222" d="M341.61,291.431c0.001-8.332-0.006-16.665,0.004-24.997
		c0.004-2.964,0.024-2.971,3.08-2.984c2.263-0.011,4.526-0.024,6.789,0.006c2.37,0.031,2.403,0.053,2.419,2.345
		c0.027,3.909,0.006,7.818,0.007,11.728c0.002,9.361,0,18.723,0.009,28.083c0.003,3.432-0.426,3.413,3.266,3.402
		c6.892-0.02,13.785-0.007,20.677-0.007c0.72,0,1.44,0.005,2.16,0.016c0.844,0.013,1.34,0.364,1.334,1.289
		c-0.015,2.675-0.021,5.35,0,8.023c0.009,1.076-0.539,1.456-1.53,1.422c-0.514-0.018-1.028,0.001-1.543,0.001
		c-11.213-0.001-22.425-0.002-33.639-0.003c-0.514,0-1.029-0.027-1.543-0.003c-1.042,0.049-1.496-0.449-1.486-1.471
		c0.014-1.543-0.005-3.086-0.005-4.629C341.609,306.244,341.609,298.838,341.61,291.431z"/>
	<path fill-rule="evenodd" clip-rule="evenodd" fill="#222222" d="M401.523,290.251c-0.001,8.538,0.01,17.077-0.009,25.616
		c-0.005,2.134-0.05,2.159-2.217,2.18c-2.777,0.026-5.556-0.043-8.333,0.029c-1.321,0.033-1.879-0.426-1.788-1.764
		c0.07-1.024,0.01-2.057,0.01-3.086c-0.001-15.637-0.001-31.274-0.002-46.911c0-0.617-0.005-1.234,0.005-1.852
		c0.043-2.662,0.045-2.675,2.721-2.693c2.469-0.018,4.938-0.029,7.407,0.004c2.138,0.028,2.184,0.057,2.19,2.242
		c0.023,8.024,0.013,16.049,0.016,24.073C401.525,288.811,401.525,289.53,401.523,290.251z"/>
	<path fill-rule="evenodd" clip-rule="evenodd" fill="#96582D" d="M389.24,257.268c0-4.091,0.002-7.548-0.002-11.005
		c-0.001-0.782,0.31-1.368,0.979-1.783c3.542-2.198,7.079-4.404,11.058-6.882c0.377,2.842,0.233,5.244,0.204,7.623
		c-0.068,5.394,0.843,3.844-3.885,6.93C395.041,253.816,392.395,255.341,389.24,257.268z"/>
</g>
</svg>
